<?xml version="1.0" encoding="UTF-8"?>
<!DOCTYPE svg PUBLIC "-//W3C//DTD SVG 1.1//EN" "http://www.w3.org/Graphics/SVG/1.1/DTD/svg11.dtd">
<!-- Creator: CorelDRAW -->
<svg xmlns="http://www.w3.org/2000/svg" xml:space="preserve" width="2048px" height="2048px" style="shape-rendering:geometricPrecision; text-rendering:geometricPrecision; image-rendering:optimizeQuality; fill-rule:evenodd; clip-rule:evenodd"
viewBox="0 0 2048 2048"
 xmlns:xlink="http://www.w3.org/1999/xlink">
 <defs>
  <style type="text/css">
   <![CDATA[
    .fil1 {fill:none}
    .fil0 {fill:#212121;fill-rule:nonzero}
   ]]>
  </style>
 </defs>
 <g id="Layer_x0020_1">
  <metadata id="CorelCorpID_0Corel-Layer"/>
  <path class="fil0" d="M603.561 837.093c0,-18.9851 -7.69371,-36.1725 -20.1307,-48.6095 -12.437,-12.437 -29.6233,-20.1307 -48.6083,-20.1307 -18.9851,0 -36.1713,7.69371 -48.6083,20.1307 -12.437,12.437 -20.1307,29.6244 -20.1307,48.6095l0 291.666 137.478 0 0 -291.666zm25.1197 -93.8599c24.0225,24.0225 38.8819,57.2103 38.8819,93.8599l0 310.816c0,2.17795 -0.111024,5.0067 -0.328347,8.4567 -0.0956694,1.5248 -0.264567,3.3437 -0.50315,5.44252 -0.553937,17.1874 -14.6599,30.9532 -31.9819,30.9532l-199.707 0c-15.9496,0.0933072 -29.8252,-11.7354 -31.891,-27.9579l31.7433 -4.04292 -31.6252 4.0004c-0.431103,-3.38977 -0.721654,-6.20434 -0.859843,-8.40237 -0.217323,-3.44764 -0.328347,-6.27402 -0.328347,-8.44961l0 -310.816c0,-36.6496 14.8595,-69.8375 38.8819,-93.8599 24.0225,-24.0225 57.2091,-38.8819 93.8587,-38.8819 36.6496,0 69.8363,14.8595 93.8587,38.8819z"/>
  <path class="fil0" d="M471.701 809.683c8.00788,-15.7394 1.73977,-34.9925 -13.9996,-43.0004 -15.7394,-8.00788 -34.9925,-1.73977 -43.0004,13.9996l-155.202 304.129c-8.00788,15.7394 -1.73977,34.9925 13.9996,43.0004 15.7394,8.00788 34.9925,1.73977 43.0004,-13.9996l155.202 -304.129z"/>
  <path class="fil0" d="M654.844 780.682c-8.00788,-15.7394 -27.261,-22.0075 -43.0004,-13.9996 -15.7394,8.00788 -22.0075,27.261 -13.9996,43.0004l155.201 304.129c8.00788,15.7394 27.261,22.0075 43.0004,13.9996 15.7394,-8.00788 22.0075,-27.261 13.9996,-43.0004l-155.201 -304.129z"/>
  <path class="fil0" d="M504.414 1160.76c0,-17.6728 -14.328,-32.0008 -32.0008,-32.0008 -17.6728,0 -32.0008,14.328 -32.0008,32.0008l0 327.402c0,17.6728 14.328,32.0008 32.0008,32.0008 17.6728,0 32.0008,-14.328 32.0008,-32.0008l0 -327.402z"/>
  <path class="fil0" d="M629.229 1160.76c0,-17.6728 -14.328,-32.0008 -32.0008,-32.0008 -17.6728,0 -32.0008,14.328 -32.0008,32.0008l0 327.402c0,17.6728 14.328,32.0008 32.0008,32.0008 17.6728,0 32.0008,-14.328 32.0008,-32.0008l0 -327.402z"/>
  <path class="fil0" d="M539.816 450.852c32.1248,0 61.213,13.024 82.2697,34.0807 21.0567,21.0543 34.0807,50.1426 34.0807,82.2697 0,32.1248 -13.024,61.2142 -34.0807,82.2686 -21.0567,21.0567 -50.1449,34.0807 -82.2697,34.0807 -32.1248,0 -61.2119,-13.024 -82.2686,-34.0807 -21.0543,-21.0543 -34.0796,-50.1437 -34.0796,-82.2686 0,-32.126 13.0252,-61.2154 34.0796,-82.2697 21.0567,-21.0567 50.1437,-34.0807 82.2686,-34.0807zm37.0193 79.3312c-9.47127,-9.47127 -22.5603,-15.3295 -37.0193,-15.3295 -14.4591,0 -27.5469,5.85827 -37.0181,15.3295 -9.4689,9.4689 -15.3284,22.5591 -15.3284,37.0193 0,14.4591 5.85945,27.5492 15.3284,37.0181 9.47127,9.47127 22.5591,15.3295 37.0181,15.3295 14.4591,0 27.5481,-5.85827 37.0193,-15.3295 9.47009,-9.47009 15.3295,-22.5591 15.3295,-37.0181 0,-14.4602 -5.85945,-27.5492 -15.3295,-37.0193z"/>
  <path class="fil0" d="M1380.47 834.234c0.750001,-35.5146 15.4524,-67.6052 38.8488,-91.0016 24.0225,-24.0225 57.2091,-38.8819 93.8587,-38.8819 36.6496,0 69.8363,14.8595 93.8587,38.8819 23.3965,23.3965 38.0988,55.4871 38.8488,91.0016l65.8878 372.097 0.022441 -0.00354331c0.36378,2.05394 0.519685,4.09725 0.488977,6.10867 -0.0153543,2.09882 -0.126378,4.74685 -0.325985,7.92166 -0.138189,2.19803 -0.42874,5.0126 -0.859843,8.40237l-3.35315 -0.424016 -0.0141732 0.022441 3.48544 0.444095c-2.06575,16.2225 -15.9414,28.0512 -31.891,27.9579l-332.443 0c-17.3221,0 -31.428,-13.7658 -31.9819,-30.9532 -0.238583,-2.09882 -0.407481,-3.91772 -0.50315,-5.44252 -0.217323,-3.45 -0.328347,-6.27874 -0.328347,-8.45788 0,-2.37284 0.261024,-4.68426 0.750001,-6.90945l65.6504 -370.764zm84.0993 -45.7512c-12.3732,12.3732 -20.0504,29.4461 -20.1284,48.3142 0.0165354,1.93583 -0.142913,3.89882 -0.49252,5.87363l-0.0236221 -0.00472441 -61.9902 350.093 262.487 0 -61.7552 -348.757c-0.490158,-2.2252 -0.750001,-4.5378 -0.750001,-6.91064 0,-18.9851 -7.69371,-36.1713 -20.1307,-48.6083 -12.437,-12.437 -29.6233,-20.1307 -48.6083,-20.1307 -18.9851,0 -36.1713,7.69371 -48.6083,20.1307z"/>
  <path class="fil0" d="M1633.3 780.682c-8.00788,-15.7394 -27.261,-22.0075 -43.0004,-13.9996 -15.7394,8.00788 -22.0075,27.261 -13.9996,43.0004l155.201 304.129c8.00788,15.7394 27.261,22.0075 43.0004,13.9996 15.7394,-8.00788 22.0075,-27.261 13.9996,-43.0004l-155.201 -304.129z"/>
  <path class="fil0" d="M1450.16 809.683c8.00788,-15.7394 1.73977,-34.9925 -13.9996,-43.0004 -15.7394,-8.00788 -34.9925,-1.73977 -43.0004,13.9996l-155.201 304.129c-8.00788,15.7394 -1.73977,34.9925 13.9996,43.0004 15.7394,8.00788 34.9925,1.73977 43.0004,-13.9996l155.201 -304.129z"/>
  <path class="fil0" d="M1607.59 1224.76c0,-17.6728 -14.328,-32.0008 -32.0008,-32.0008 -17.6728,0 -32.0008,14.328 -32.0008,32.0008l0 263.401c0,17.6728 14.328,32.0008 32.0008,32.0008 17.6728,0 32.0008,-14.328 32.0008,-32.0008l0 -263.401z"/>
  <path class="fil0" d="M1482.77 1224.76c0,-17.6728 -14.328,-32.0008 -32.0008,-32.0008 -17.6728,0 -32.0008,14.328 -32.0008,32.0008l0 263.401c0,17.6728 14.328,32.0008 32.0008,32.0008 17.6728,0 32.0008,-14.328 32.0008,-32.0008l0 -263.401z"/>
  <path class="fil0" d="M1508.18 514.854c-14.4602,0 -27.5492,5.85945 -37.0193,15.3295 -9.47009,9.47009 -15.3295,22.5591 -15.3295,37.0193 0,14.4591 5.85827,27.5481 15.3295,37.0193 9.4689,9.4689 22.5591,15.3284 37.0193,15.3284 14.4591,0 27.5469,-5.85945 37.017,-15.3295 9.47009,-9.47009 15.3295,-22.5591 15.3295,-37.0181 0,-14.4591 -5.85827,-27.5492 -15.3284,-37.0193 -9.47127,-9.47127 -22.5591,-15.3295 -37.0181,-15.3295zm-82.2697 -29.9209c21.0543,-21.0567 50.1426,-34.0807 82.2697,-34.0807 32.1248,0 61.2119,13.024 82.2686,34.0807 21.0543,21.0567 34.0796,50.1449 34.0796,82.2697 0,32.1248 -13.024,61.2142 -34.0807,82.2686 -21.0543,21.0567 -50.1414,34.0807 -82.2674,34.0807 -32.126,0 -61.2154,-13.0252 -82.2697,-34.0796 -21.0567,-21.0567 -34.0807,-50.1449 -34.0807,-82.2697 0,-32.1272 13.024,-61.2154 34.0807,-82.2697z"/>
  <path class="fil0" d="M805.61 1132.72c0.879922,-13.2024 -9.11103,-24.6201 -22.3134,-25.5 -13.2024,-0.879922 -24.6201,9.11103 -25.5,22.3134 -0.022441,0.341339 -9.68032,119.252 107.328,129.002 13.2024,1.08662 24.789,-8.73544 25.8756,-21.9378 1.08662,-13.2024 -8.73544,-24.789 -21.9378,-25.8756 -69.2941,-5.77323 -63.4666,-77.7957 -63.4524,-78.0024z"/>
  <path class="fil0" d="M918.157 1259.38c0,-4.85197 -1.96772,-9.24686 -5.14489,-12.424 -3.17717,-3.17717 -7.57205,-5.14489 -12.4252,-5.14489 -4.85315,0 -9.24686,1.96654 -12.4252,5.14489 -3.17717,3.17717 -5.14489,7.57087 -5.14489,12.424l0 96.4902 35.1402 0 0 -96.4902zm28.7929 -46.3618c11.8654,11.8654 19.2071,28.2591 19.2071,46.3618l0 120.49c0,13.2543 -10.7457,24 -24,24l-83.1402 0c-13.2543,0 -24,-10.7457 -24,-24l0 -120.49c0,-18.1028 7.34174,-34.4965 19.2071,-46.3618 11.8654,-11.8677 28.2603,-19.2071 46.363,-19.2071 18.1028,0 34.4977,7.34174 46.363,19.2071z"/>
  <path class="fil0" d="M890.624 1393.75c0,-13.2543 -10.7457,-24 -24,-24 -13.2543,0 -24,10.7457 -24,24l0 107.401c0,13.2543 10.7457,24 24,24 13.2543,0 24,-10.7457 24,-24l0 -107.401z"/>
  <path class="fil0" d="M958.548 1393.75c0,-13.2543 -10.7457,-24 -24,-24 -13.2543,0 -24,10.7457 -24,24l0 107.402c0,13.2543 10.7457,24 24,24 13.2543,0 24,-10.7457 24,-24l0 -107.402z"/>
  <path class="fil0" d="M897.674 1058.13c18.1453,0 34.5792,7.35827 46.4717,19.2508 11.8937,11.8937 19.252,28.3264 19.252,46.4717 0,18.1453 -7.35827,34.5792 -19.252,46.4717 -11.8937,11.8937 -28.3264,19.252 -46.4717,19.252 -18.1453,0 -34.578,-7.35827 -46.4717,-19.252 -11.8925,-11.8925 -19.2508,-28.3264 -19.2508,-46.4717 0,-18.1453 7.35827,-34.5768 19.2508,-46.4717 11.8949,-11.8925 28.3264,-19.2508 46.4717,-19.2508zm12.5339 53.1886c-3.20433,-3.20433 -7.63819,-5.18859 -12.5339,-5.18859 -4.89567,0 -9.32835,1.98425 -12.5339,5.18859 -3.20433,3.20551 -5.18859,7.63701 -5.18859,12.5339 0,4.89567 1.98425,9.32953 5.18859,12.5339 3.20551,3.20551 7.63819,5.18977 12.5339,5.18977 4.89567,0 9.32835,-1.98425 12.5339,-5.18977 3.20551,-3.20551 5.18977,-7.63819 5.18977,-12.5339 0,-4.89567 -1.98425,-9.32835 -5.18977,-12.5339z"/>
  <path class="fil0" d="M995.052 1319.06c-1.24252,13.1504 8.41182,24.8197 21.5622,26.0622 13.1504,1.24252 24.8197,-8.41182 26.0622,-21.5622 0.0318898,-0.344882 12.9461,-120.337 -136.35,-129.659 -13.2024,-0.775985 -24.5374,9.29764 -25.3134,22.5 -0.775985,13.2024 9.29764,24.5374 22.5,25.3134 99.3119,6.20079 91.5579,77.1426 91.539,77.3457z"/>
  <path class="fil0" d="M1000.44 1323.56c1.24252,13.1504 12.9118,22.8047 26.0622,21.5622 13.1504,-1.24252 22.8047,-12.9118 21.5622,-26.0622 -0.0188977,-0.20315 -7.77166,-71.1449 91.5402,-77.3457 13.2024,-0.775985 23.276,-12.111 22.5,-25.3134 -0.775985,-13.2024 -12.111,-23.276 -25.3134,-22.5 -149.296,9.32245 -136.383,129.314 -136.351,129.659z"/>
  <path class="fil0" d="M1285.32 1129.54c-0.879922,-13.2024 -12.2976,-23.1933 -25.5,-22.3134 -13.2024,0.879922 -23.1933,12.2976 -22.3134,25.5 0.0141732,0.206693 5.84174,72.2292 -63.4524,78.0024 -13.2024,1.08662 -23.0244,12.6732 -21.9378,25.8756 1.08662,13.2024 12.6732,23.0244 25.8756,21.9378 117.007,-9.75001 107.35,-128.661 107.328,-129.002z"/>
  <path class="fil0" d="M1160.03 1259.38c0,-4.85197 -1.96772,-9.24686 -5.14489,-12.424 -3.17717,-3.17717 -7.57205,-5.14489 -12.4252,-5.14489 -4.85315,0 -9.24804,1.96772 -12.4252,5.14489 -3.17717,3.17717 -5.14489,7.57205 -5.14489,12.424l0 96.4902 35.1402 0 0 -96.4902zm28.7929 -46.3618c11.8654,11.8654 19.2071,28.2591 19.2071,46.3618l0 120.49c0,13.2543 -10.7457,24 -24,24l-83.1402 0c-13.2543,0 -24,-10.7457 -24,-24l0 -120.49c0,-18.1028 7.34174,-34.4965 19.2071,-46.3618 11.8654,-11.8654 28.2603,-19.2071 46.363,-19.2071 18.1028,0 34.4977,7.34174 46.363,19.2071z"/>
  <path class="fil0" d="M1132.5 1393.75c0,-13.2543 -10.7457,-24 -24,-24 -13.2543,0 -24,10.7457 -24,24l0 107.401c0,13.2543 10.7457,24 24,24 13.2543,0 24,-10.7457 24,-24l0 -107.401z"/>
  <path class="fil0" d="M1200.42 1393.75c0,-13.2543 -10.7457,-24 -24,-24 -13.2543,0 -24,10.7457 -24,24l0 107.402c0,13.2543 10.7457,24 24,24 13.2543,0 24,-10.7457 24,-24l0 -107.402z"/>
  <path class="fil0" d="M1139.55 1058.13c18.1477,0 34.578,7.35827 46.4729,19.2508 11.8937,11.8937 19.252,28.3264 19.252,46.4717 0,18.1453 -7.35827,34.5792 -19.252,46.4717 -11.8937,11.8937 -28.3276,19.252 -46.4729,19.252 -18.1453,0 -34.578,-7.35827 -46.4717,-19.252 -11.8925,-11.8925 -19.2508,-28.3264 -19.2508,-46.4717 0,-18.1453 7.35827,-34.5768 19.2508,-46.4717 11.8949,-11.8925 28.3264,-19.2508 46.4717,-19.2508zm12.535 53.1886c-3.20551,-3.20433 -7.63819,-5.18859 -12.535,-5.18859 -4.89685,0 -9.32835,1.98425 -12.5339,5.18859 -3.20433,3.20551 -5.18859,7.63701 -5.18859,12.5339 0,4.89567 1.98425,9.32953 5.18859,12.5339 3.20551,3.20551 7.63819,5.18977 12.5339,5.18977 4.89567,0 9.32953,-1.98425 12.535,-5.18977 3.20551,-3.20551 5.18977,-7.63819 5.18977,-12.5339 0,-4.89567 -1.98425,-9.32835 -5.18977,-12.5339z"/>
 </g>
 <rect class="fil1" width="2048" height="2048"/>
</svg>
